<svg width="256" height="256" viewBox="0 0 256 256" fill="none" xmlns="http://www.w3.org/2000/svg">
<path d="M53.172 0C38.565 0 27.756 16.0493 28.24 33.4543C28.705 50.1752 28.101 71.8332 23.758 89.4943C19.402 107.207 12.034 118.427 0 119.868V136.132C12.034 137.573 19.402 148.793 23.758 166.507C28.101 184.168 28.705 205.824 28.24 222.546C27.756 239.948 38.565 256 53.174 256H202.847C217.455 256 228.261 239.951 227.777 222.546C227.313 205.825 227.916 184.168 232.259 166.507C236.618 148.794 243.966 137.572 256 136.132V119.868C243.966 118.427 236.618 107.207 232.26 89.4943C227.916 71.8357 227.313 50.1764 227.777 33.4543C228.261 16.0518 217.455 0 202.847 0H53.17H53.172ZM173.56 157.584C173.56 181.551 159.32 196.085 135.688 196.085H95.458C94.3074 196.084 93.204 195.51 92.3905 194.489C91.577 193.468 91.12 192.082 91.12 190.638V65.362C91.1199 64.6466 91.232 63.9382 91.45 63.2772C91.668 62.6162 91.9876 62.0156 92.3905 61.5097C92.7934 61.0038 93.2718 60.6025 93.7983 60.3287C94.3248 60.0549 94.8891 59.9139 95.459 59.9139H135.458C155.163 59.9139 168.095 73.3145 168.095 93.8867C168.095 108.327 159.395 121.254 148.312 123.517V124.272C163.401 126.349 173.56 139.466 173.56 157.584ZM131.3 77.1809H108.363V117.853H127.683C142.617 117.853 150.853 110.304 150.853 96.8091C150.853 84.1642 143.77 77.1809 131.3 77.1809ZM108.363 133.992V178.813H132.145C147.693 178.813 155.931 170.981 155.931 156.261C155.931 141.539 147.464 133.989 131.145 133.989H108.363V133.992Z" fill="#7E13F8"/>
</svg>
