<svg width="256" height="256" viewBox="0 0 256 256" fill="none" xmlns="http://www.w3.org/2000/svg">
<path d="M0 0H256V256H0V0Z" fill="#F5DE19"/>
<path d="M171.967 200C174.149 204.431 177.538 208.155 181.743 210.743C185.949 213.331 190.801 214.678 195.739 214.629C205.705 214.629 212.077 209.646 212.077 202.743C212.077 194.515 205.531 191.571 194.56 186.771L188.543 184.192C171.172 176.796 159.652 167.534 159.652 147.95C159.652 129.911 173.366 116.169 194.88 116.169C201.844 115.666 208.802 117.225 214.886 120.651C220.97 124.077 225.911 129.218 229.092 135.433L210.285 147.456C209.06 144.374 206.927 141.738 204.169 139.896C201.412 138.054 198.159 137.094 194.843 137.143C193.396 136.998 191.935 137.156 190.553 137.607C189.171 138.058 187.897 138.792 186.814 139.763C185.732 140.733 184.863 141.918 184.263 143.243C183.663 144.567 183.346 146.002 183.332 147.456C183.332 154.67 187.803 157.596 198.125 162.085L204.141 164.663C224.585 173.431 236.141 182.364 236.141 202.451C236.141 224.11 219.126 235.977 196.278 235.977C187.376 236.545 178.5 234.523 170.721 230.158C162.941 225.792 156.592 219.268 152.438 211.374L171.967 200ZM86.9846 202.085C90.7606 208.787 94.1984 214.455 102.463 214.455C110.363 214.455 115.355 211.365 115.355 199.342V117.541H139.41V199.662C139.41 224.567 124.781 235.904 103.487 235.904C95.9607 236.316 88.4855 234.44 82.0446 230.523C75.6038 226.607 70.4987 220.833 67.4006 213.961L86.9846 202.085Z" fill="black"/>
</svg>
