<svg width="256" height="104" viewBox="0 0 256 104" fill="none" xmlns="http://www.w3.org/2000/svg">
<path d="M214.771 0.043V16.503H197.083V103.1H188.238V16.504H170.181V0.043H214.771ZM216.76 93.283C217.383 93.283 217.928 93.731 218.389 94.629C218.857 95.526 219.091 96.601 219.097 97.853C219.096 98.6745 218.982 99.4796 218.767 100.18C218.556 100.871 218.262 101.444 217.91 101.845C217.563 102.26 217.165 102.477 216.76 102.471C216.112 102.471 215.561 102.022 215.1 101.125C214.639 100.227 214.41 99.14 214.416 97.853C214.411 96.601 214.639 95.526 215.1 94.629C215.561 93.731 216.112 93.283 216.76 93.283ZM41.458 103.1L8.845 22.028V103.058H0V0H11.0555L52.2585 102.329L52.259 16.504L52.2555 0.043H96.8455V16.503H61.1035V42.983H89.8475V59.444H61.1035V86.64H96.846V103.1H41.458ZM125.192 59.287L130.989 73.7L119.112 103.222H107.504L125.192 59.287ZM119.112 0.086L134.077 37.256L148.995 0.2L160.57 0.165L139.872 51.65L160.603 103.143H148.995L107.537 0.086H119.112ZM231.855 59.056H235.775V89.256C235.769 92.031 235.469 94.404 234.882 96.401C234.289 98.396 233.467 99.92 232.413 100.995C231.364 102.057 230.135 102.601 228.739 102.601C227.462 102.601 226.318 102.141 225.299 101.243C224.28 100.345 223.472 98.999 222.878 97.227C222.278 95.456 221.985 93.247 221.985 90.602H225.911C225.917 91.759 226.049 92.762 226.3 93.602C226.548 94.431 226.91 95.0991 227.343 95.526C227.792 95.976 228.308 96.2 228.889 96.2C229.519 96.2 230.057 95.94 230.495 95.408C230.932 94.888 231.268 94.109 231.502 93.07C231.729 92.042 231.849 90.767 231.855 89.255V59.056ZM251.9 70.866C251.805 69.036 251.385 67.606 250.654 66.591C249.917 65.563 248.965 65.056 247.796 65.056C246.976 65.056 246.268 65.304 245.68 65.788C245.093 66.284 244.638 66.945 244.326 67.784C244.015 68.622 243.859 69.579 243.846 70.654C243.846 71.551 243.955 72.331 244.164 72.98C244.381 73.6604 244.675 74.2307 245.021 74.646C245.397 75.1191 245.8 75.5033 246.22 75.791C246.663 76.098 247.107 76.358 247.55 76.571L249.594 77.575C250.415 77.953 251.212 78.46 251.973 79.11C252.734 79.748 253.423 80.563 254.028 81.543C254.633 82.523 255.113 83.704 255.467 85.086C255.82 86.468 256 88.086 256 89.952C256 92.467 255.676 94.676 255.023 96.589C254.37 98.491 253.429 99.979 252.195 101.054C250.966 102.117 249.479 102.66 247.73 102.66C246.04 102.66 244.566 102.14 243.325 101.101C242.079 100.074 241.108 98.561 240.406 96.577C239.705 94.593 239.328 92.172 239.274 89.326H243.158C243.212 90.814 243.451 92.054 243.859 93.058C244.272 94.05 244.811 94.782 245.471 95.278C246.136 95.763 246.879 96.011 247.7 96.011C248.557 96.011 249.312 95.751 249.965 95.243C250.612 94.735 251.122 94.027 251.488 93.105C251.859 92.195 252.045 91.121 252.051 89.893C252.045 88.771 251.876 87.838 251.553 87.105C251.223 86.373 250.768 85.759 250.186 85.263C249.6 84.767 248.916 84.318 248.137 83.929L245.656 82.677C243.864 81.767 242.445 80.386 241.408 78.531C240.365 76.677 239.85 74.221 239.85 71.138C239.85 68.611 240.197 66.39 240.898 64.488C241.593 62.588 242.547 61.111 243.751 60.06C244.961 58.997 246.328 58.477 247.85 58.477C249.396 58.477 250.75 58.997 251.919 60.06C253.087 61.111 254.005 62.575 254.669 64.441C255.335 66.308 255.683 68.445 255.701 70.866H251.9Z" fill="black"/>
</svg>
