<svg width="256" height="256" viewBox="0 0 256 256" fill="none" xmlns="http://www.w3.org/2000/svg">
<path d="M128 256C198.692 256 256 198.692 256 128C256 57.3076 198.692 0 128 0C57.3075 0 0 57.3076 0 128C0 198.692 57.3075 256 128 256Z" fill="url(#paint0_radial_1304_47)"/>
<path d="M128 246.49C195.931 246.49 251 193.44 251 128C251 62.5596 195.931 9.50964 128 9.50964C60.069 9.50964 5 62.5596 5 128C5 193.44 60.069 246.49 128 246.49Z" fill="#6181B6"/>
<path d="M152.9 166.419L159 106.698C160.4 93.1946 159.2 83.1144 155.6 76.838C152.1 70.7519 146.1 67.7088 137.3 67.7088H126.7L129.7 38.0386C129.8 36.8975 129.7 35.7563 129.3 34.8053C128.9 33.8544 128.4 33.474 127.8 33.474H113.2C112.2 33.474 111.4 34.8054 111.2 36.5171L104.7 99.8514C104.1 92.6241 102.7 86.5379 100.3 81.5929C95.9999 72.2734 89.2999 67.5186 80.1999 67.5186H52.0999C51.0999 67.5186 50.2999 68.8499 50.0999 70.5617L36.9999 199.132C36.8999 200.273 36.9999 201.415 37.3999 202.366C37.7999 203.316 38.2999 203.697 38.8999 203.697H53.5999C54.5999 203.697 55.3999 202.366 55.5999 200.654L58.7999 169.652H69.6999C75.3999 169.652 80.2999 168.511 83.9999 166.229C87.8999 163.756 91.3999 159.762 94.4999 154.247C96.9999 149.872 99.0999 144.927 100.7 139.602L98.0999 165.278C97.9999 166.419 98.0999 167.56 98.4999 168.511C98.8999 169.462 99.3999 169.842 99.9999 169.842H114.6C115.6 169.842 116.4 168.511 116.6 166.799L123.8 96.4279H133.8C138.1 96.4279 139.3 97.9495 139.7 98.7103C140 99.2808 140.6 101.563 139.9 108.6L134.1 165.468C134 166.609 134.1 167.75 134.5 168.701C134.9 169.652 135.4 170.033 136 170.033H151C151.9 169.462 152.7 168.131 152.9 166.419ZM85.2999 116.969C84.3999 125.908 82.6999 132.374 80.1999 135.988C77.6999 139.602 73.5999 141.504 68.1999 141.504H61.6999L66.3999 95.477H74.7999C80.9999 95.477 83.4999 97.9495 84.4999 100.042C85.7999 103.085 86.0999 108.981 85.2999 116.969ZM215.3 81.5929C211 72.2734 204.3 67.5186 195.2 67.5186H166.9C165.9 67.5186 165.1 68.8499 164.9 70.5617L151.8 198.942C151.7 200.083 151.8 201.224 152.2 202.175C152.6 203.126 153.1 203.507 153.7 203.507H168.4C169.4 203.507 170.2 202.175 170.4 200.464L173.6 169.462H184.5C190.2 169.462 195.1 168.321 198.8 166.039C202.7 163.566 206.2 159.572 209.3 154.056C211.9 149.492 214.1 144.357 215.7 138.841C217.3 133.325 218.5 127.239 219.2 120.582C220.9 104.036 219.6 91.1025 215.3 81.5929ZM200 116.969C199.1 125.908 197.4 132.374 194.9 135.988C192.4 139.602 188.3 141.504 182.9 141.504H176.4L181.1 95.477H189.5C195.7 95.477 198.2 97.9495 199.2 100.042C200.6 103.085 200.9 108.981 200 116.969Z" fill="white"/>
<path d="M74.8 91.6731C80.4 91.6731 84.1 93.575 86 97.5691C87.9 101.563 88.3 108.22 87.3 117.73C86.3 127.62 84.3 134.847 81.4 139.031C78.5 143.215 74.1 145.308 68.2 145.308H59.3L64.8 91.6731H74.8ZM39 199.703H53.7L57.2 165.658H69.8C75.4 165.658 79.9 164.517 83.5 162.235C87.1 159.952 90.3 156.339 93.3 151.013C95.8 146.639 97.8 141.884 99.3 136.749C100.8 131.614 101.9 125.908 102.5 119.631C104.1 104.416 102.9 92.624 99 84.0653C95.1 75.5067 88.9 71.3224 80.4 71.3224H52.1L39 199.703ZM113.3 37.2778H127.9L124.4 71.3224H137.4C145.6 71.3224 151.2 73.9851 154.3 79.5007C157.4 85.0163 158.3 93.7652 157.1 105.938L151 165.658H136.2L142 108.79C142.7 102.324 142.4 97.9494 141.3 95.6671C140.2 93.3848 137.7 92.0535 134 92.0535H122.3L114.8 165.658H100.2L113.3 37.2778ZM189.5 91.6731C195.1 91.6731 198.8 93.575 200.7 97.5691C202.6 101.563 203 108.22 202 117.73C201 127.62 199 134.847 196.1 139.031C193.2 143.215 188.8 145.308 182.9 145.308H174L179.5 91.6731H189.5ZM153.7 199.703H168.4L171.9 165.658H184.5C190.1 165.658 194.6 164.517 198.2 162.235C201.8 159.952 205 156.339 208 151.013C210.5 146.639 212.5 141.884 214 136.749C215.5 131.614 216.6 125.908 217.2 119.631C218.8 104.416 217.6 92.624 213.7 84.0653C209.8 75.5067 203.6 71.3224 195.1 71.3224H166.8L153.7 199.703Z" fill="#000004"/>
<defs>
<radialGradient id="paint0_radial_1304_47" cx="0" cy="0" r="1" gradientUnits="userSpaceOnUse" gradientTransform="translate(76.8515 45.014) scale(168.095 319.706)">
<stop stop-color="white"/>
<stop offset="0.5" stop-color="#4C6B97"/>
<stop offset="1" stop-color="#231F20"/>
</radialGradient>
</defs>
</svg>
