<svg width="256" height="256" viewBox="0 0 256 256" fill="none" xmlns="http://www.w3.org/2000/svg">
<path d="M210.483 82.9748C207.759 81.9242 205.011 80.9509 202.243 80.0558C202.708 77.9203 203.136 75.8107 203.516 73.7381C209.754 39.7036 205.676 12.2846 191.747 3.25703C178.392 -5.39743 156.551 3.62681 134.493 25.2034C132.319 27.3337 130.193 29.5253 128.118 31.7763C126.729 30.2795 125.315 28.8117 123.877 27.3738C100.759 4.30343 77.587 -5.41991 63.673 3.63356C50.33 12.315 46.379 38.0907 51.995 70.346C52.5537 73.5405 53.1846 76.7186 53.887 79.8771C50.607 80.9247 47.442 82.0396 44.413 83.2265C17.309 93.8479 0 110.493 0 127.758C0 145.589 18.582 163.475 46.812 174.32C49.1007 175.195 51.4084 176.007 53.733 176.753C52.978 180.155 52.3078 183.58 51.723 187.024C46.369 218.719 50.55 243.886 63.857 252.512C77.601 261.421 100.669 252.265 123.13 230.196C124.951 228.402 126.733 226.557 128.472 224.663C130.72 227.1 133.027 229.467 135.392 231.76C157.15 252.802 178.638 261.299 191.932 252.649C205.663 243.715 210.126 216.68 204.332 183.787C203.876 181.21 203.364 178.646 202.797 176.097C204.417 175.557 206.007 175.002 207.557 174.424C236.905 163.496 256 145.828 256 127.758C256 110.43 238.132 93.6726 210.483 82.9748ZM204.118 162.758C202.718 163.278 201.282 163.78 199.818 164.269C196.578 152.741 192.206 140.483 186.855 127.817C191.961 115.454 196.165 103.352 199.314 91.899C201.933 92.7509 204.474 93.649 206.924 94.5965C230.614 103.763 245.064 117.315 245.064 127.758C245.064 138.88 229.458 153.32 204.118 162.758ZM193.604 186.174C196.166 200.718 196.531 213.868 194.834 224.149C193.31 233.387 190.244 239.545 186.452 242.012C178.385 247.261 161.132 240.439 142.525 222.442C140.325 220.31 138.179 218.11 136.088 215.844C143.302 206.978 150.511 196.67 157.547 185.221C169.923 183.987 181.615 181.968 192.218 179.214C192.729 181.521 193.191 183.842 193.604 186.174ZM87.276 241.105C79.394 244.233 73.116 244.323 69.321 241.864C61.246 236.63 57.889 216.422 62.468 189.317C63.0123 186.114 63.6356 182.928 64.337 179.764C74.823 182.372 86.43 184.247 98.835 185.377C105.919 196.58 113.336 206.876 120.811 215.893C119.222 217.62 117.596 219.304 115.934 220.942C106.001 230.7 96.048 237.623 87.276 241.105ZM50.35 162.689C37.867 157.893 27.558 151.661 20.492 144.86C14.142 138.749 10.937 132.681 10.937 127.758C10.937 117.28 24.834 103.916 48.013 94.8336C50.826 93.7322 53.77 92.6925 56.825 91.7169C60.029 103.429 64.231 115.674 69.302 128.057C64.165 140.622 59.903 153.064 56.668 164.913C54.5461 164.23 52.4395 163.489 50.35 162.689ZM62.728 67.9846C57.917 40.3498 61.112 19.5038 69.153 14.2718C77.717 8.69923 96.655 16.6445 116.616 36.5655C117.918 37.8675 119.198 39.1958 120.457 40.5499C113.019 49.5269 105.67 59.7471 98.649 70.8832C86.609 72.1376 75.084 74.1517 64.488 76.8503C63.8352 73.9125 63.2483 70.9556 62.728 67.9846ZM173.155 98.6326C170.652 93.7736 168.057 88.9759 165.37 84.2426C173.538 85.4036 181.364 86.9446 188.713 88.8283C186.507 96.7769 183.757 105.086 180.52 113.606C178.154 108.56 175.698 103.568 173.155 98.6326ZM128.123 49.3347C133.167 55.4772 138.219 62.3344 143.188 69.775C133.108 69.24 123.011 69.2377 112.931 69.7683C117.905 62.3962 123 55.548 128.123 49.3347ZM82.802 98.7169C80.2903 103.613 77.8807 108.574 75.575 113.596C72.391 105.107 69.666 96.759 67.441 88.6979C74.745 86.8614 82.534 85.3598 90.65 84.2201C87.9334 88.9823 85.3167 93.8166 82.802 98.7169ZM90.883 172.17C82.498 171.118 74.592 169.694 67.29 167.907C69.55 159.702 72.335 151.176 75.588 142.505C77.9028 147.531 80.3225 152.495 82.845 157.393C85.439 162.428 88.125 167.36 90.883 172.17ZM128.425 207.046C123.241 200.761 118.071 193.807 113.022 186.328C117.924 186.544 122.921 186.654 128 186.654C133.218 186.654 138.376 186.523 143.453 186.269C138.468 193.882 133.435 200.846 128.425 207.046ZM180.623 142.062C184.045 150.829 186.929 159.309 189.219 167.374C181.797 169.278 173.783 170.811 165.339 171.949C168.045 167.128 170.665 162.247 173.198 157.309C175.773 152.289 178.249 147.206 180.623 142.062ZM163.725 151.167C159.847 158.739 155.751 166.167 151.444 173.439C143.642 174.06 135.822 174.368 128 174.364C120.033 174.364 112.284 174.085 104.822 173.541C100.402 166.286 96.2282 158.845 92.309 151.235C88.4082 143.665 84.7656 135.932 81.387 128.051C84.757 120.169 88.3895 112.431 92.277 104.856L92.276 104.857C96.162 97.2796 100.303 89.8708 104.689 82.6466C112.302 81.9992 120.109 81.662 127.999 81.662C135.925 81.662 143.743 82.0025 151.354 82.6544C155.696 89.8678 159.81 97.2512 163.689 104.791C167.589 112.35 171.27 120.049 174.725 127.877C171.306 135.785 167.637 143.553 163.725 151.167ZM186.285 13.9054C194.857 19.4622 198.191 41.8706 192.805 71.2564C192.461 73.1312 192.075 75.0408 191.655 76.9773C181.033 74.2214 169.5 72.1724 157.425 70.899C150.391 59.6403 143.102 49.4044 135.785 40.5432C137.703 38.4655 139.666 36.4418 141.673 34.4738C160.573 15.9881 178.237 8.68911 186.285 13.9054ZM128 102.064C140.625 102.064 150.86 113.568 150.86 127.758C150.86 141.948 140.625 153.451 128 153.451C115.375 153.451 105.14 141.948 105.14 127.758C105.14 113.568 115.375 102.064 128 102.064Z" fill="#00D8FF"/>
</svg>
