<svg width="256" height="256" viewBox="0 0 256 256" fill="none" xmlns="http://www.w3.org/2000/svg">
<path d="M255.153 37.8905L134.897 252.658C132.414 257.093 126.035 257.119 123.515 252.706L0.874677 37.9105C-1.87132 33.1026 2.24568 27.2779 7.70168 28.2527L128.087 49.7426C128.855 49.8797 129.641 49.8783 130.409 49.7386L248.276 28.2826C253.714 27.2929 257.85 33.0726 255.153 37.8905Z" fill="url(#paint0_linear_1304_48)"/>
<path d="M185.432 0.0630289L96.4397 17.4791C95.7286 17.6183 95.084 17.9894 94.6072 18.5343C94.1304 19.0792 93.8485 19.7669 93.8057 20.4893L88.3317 112.829C88.3016 113.336 88.3901 113.842 88.5902 114.308C88.7903 114.775 89.0965 115.188 89.4845 115.515C89.8724 115.843 90.3315 116.076 90.8252 116.195C91.3189 116.314 91.8337 116.317 92.3287 116.203L117.106 110.492C119.424 109.958 121.519 111.997 121.042 114.325L113.681 150.327C113.186 152.75 115.463 154.821 117.832 154.102L133.136 149.459C135.508 148.74 137.788 150.817 137.286 153.242L125.588 209.792C124.856 213.33 129.567 215.258 131.531 212.226L132.844 210.201L205.36 65.6625C206.575 63.2426 204.48 60.483 201.82 60.9964L176.315 65.9122C173.919 66.3736 171.88 64.1444 172.556 61.8034L189.202 4.17086C189.879 1.82381 187.831 -0.406381 185.432 0.0630289Z" fill="url(#paint1_linear_1304_48)"/>
<defs>
<linearGradient id="paint0_linear_1304_48" x1="-211.968" y1="1771.69" x2="12736.4" y2="19378.8" gradientUnits="userSpaceOnUse">
<stop stop-color="#41D1FF"/>
<stop offset="1" stop-color="#BD34FE"/>
</linearGradient>
<linearGradient id="paint1_linear_1304_48" x1="5180.13" y1="479.184" x2="7841.65" y2="18759.6" gradientUnits="userSpaceOnUse">
<stop stop-color="#FFEA83"/>
<stop offset="0.08333" stop-color="#FFDD35"/>
<stop offset="1" stop-color="#FFA800"/>
</linearGradient>
</defs>
</svg>
